<svg height="512" viewBox="0 0 64 64" width="512" xmlns="http://www.w3.org/2000/svg" xmlns:xlink="http://www.w3.org/1999/xlink"><linearGradient id="a" gradientUnits="userSpaceOnUse" x1="-4.095" x2="60.165" y1="54.595" y2="-9.665"><stop offset="0" stop-color="#003f8a"/><stop offset=".518" stop-color="#00d7df"/><stop offset="1" stop-color="#006df0"/></linearGradient><linearGradient id="b" x1="4.179" x2="68.439" xlink:href="#a" y1="62.869" y2="-1.392"/><linearGradient id="c" x1="3.054" x2="67.315" xlink:href="#a" y1="61.744" y2="-2.516"/><linearGradient id="d" x1="1.886" x2="66.147" xlink:href="#a" y1="60.576" y2="-3.684"/><path d="M58 29h-9v-1h3a1 1 0 0 0 1-1v-4a.9.9 0 0 0-.035-.173 3 3 0 1 0-1.93 0A.9.9 0 0 0 51 23v3h-3a1 1 0 0 0-1 1v3a1 1 0 0 0 1 1h9v2H37V2a1 1 0 0 0-1-1H6a1 1 0 0 0-1 1v54a1 1 0 0 0 .073.362.812.812 0 0 0 .058.1.98.98 0 0 0 .133.2.965.965 0 0 0 .1.091.938.938 0 0 0 .182.123 1.076 1.076 0 0 0 .135.058.919.919 0 0 0 .086.036l25 6A.971.971 0 0 0 31 63a1 1 0 0 0 1-1v-5h4a1 1 0 0 0 1-1V35h21a1 1 0 0 0 1-1v-4a1 1 0 0 0-1-1zm-6-10a1 1 0 1 1-1 1 1 1 0 0 1 1-1zM30 60.731l-23-5.52V3.269l23 5.52zM35 55h-3V8a1 1 0 0 0-.767-.972L14.451 3H35z" fill="url(#a)"/><path d="M49 14.524a1 1 0 1 0 1.5 1.322 2.058 2.058 0 0 1 2.913-.092 1 1 0 1 0 1.415-1.413 4 4 0 0 0-5.828.183z" fill="url(#b)"/><path d="M56.1 13.791a1 1 0 0 0 .684-1.73 7 7 0 0 0-9.367-.184 1 1 0 1 0 1.31 1.512 5 5 0 0 1 6.689.131 1 1 0 0 0 .684.271z" fill="url(#c)"/><path d="M46 11.463a.993.993 0 0 0 .666-.255 8 8 0 0 1 10.667 0 1 1 0 0 0 1.334-1.491 10 10 0 0 0-13.335 0A1 1 0 0 0 46 11.463z" fill="url(#d)"/></svg>