<svg xmlns="http://www.w3.org/2000/svg" viewBox="0 0 511.7 511.7" width="512" height="512"><path d="M450.85 314.9v1.8c0 107.399-87.599 195-195 195s-195-87.601-195-195c0-4.801.3-9.3.601-13.801l27.599-7.8c1.5 2.401 2.401 4.801 2.401 7.8 0 16.199 13.799 30 30 30 16.5 0 30-13.5 30-30 0-8.399 6.599-15 15-15 8.399 0 15 6.601 15 15 0 16.199 13.799 30 30 30 16.5 0 30-13.5 30-30 0-8.101 6.299-14.7 14.399-15h.601c8.399 0 15 6.601 15 15 0 16.199 13.799 30 30 30 16.5 0 30-13.5 30-30 0-8.399 6.599-15 15-15 8.399 0 15 6.601 15 15 0 16.199 13.799 30 30 30 14.099 0 26.4-10.199 29.399-24 .901-3.9 2.999-6.601 5.7-8.699l23.699 14.7h.601z" fill="#25d9f8"/><path d="M450.85 314.9v1.8c0 107.399-87.599 195-195 195V287.899h.601c8.399 0 15 6.601 15 15 0 16.199 13.799 30 30 30 16.5 0 30-13.5 30-30 0-8.399 6.599-15 15-15 8.399 0 15 6.601 15 15 0 16.199 13.799 30 30 30 14.099 0 26.4-10.199 29.399-24 .901-3.9 2.999-6.601 5.7-8.699l23.699 14.7h.601z" fill="#00c0f1"/><path d="M411.85 199.699L267.851 5.7c-3.001-3.602-7.5-5.7-12.001-5.7s-9 2.098-12.001 5.7l-144 193.999c-22.2 30-35.4 65.4-38.399 103.2 0 33.001 26.999 60 60 60 17.999 0 33.9-7.8 45-20.4 11.1 12.599 26.999 20.4 45 20.4 17.699 0 33.3-7.5 44.399-19.799l.601-.601c11.1 12.599 26.999 20.4 45 20.4 17.999 0 33.9-7.8 45-20.4 11.1 12.599 26.999 20.4 45 20.4 28.2 0 53.099-20.099 58.799-47.999.3-1.201.3-2.1.3-3.301-.898-40.5-14.399-78.899-38.699-111.9z" fill="#76e2f8"/><path d="M450.55 311.598c0 1.201 0 2.1-.3 3.301-5.7 27.9-30.599 47.999-58.799 47.999-18.001 0-33.9-7.8-45-20.4-11.1 12.599-27.001 20.4-45 20.4-18.001 0-33.9-7.8-45-20.4l-.601.601V0c4.501 0 9 2.098 12.001 5.7l144 193.999c24.299 33.001 37.8 71.4 38.699 111.899z" fill="#25d9f8"/></svg>