<svg xmlns="http://www.w3.org/2000/svg" viewBox="0 0 455 455" width="512" height="512"><path d="M227.5 0C101.86 0 0 101.86 0 227.5S101.86 455 227.5 455 455 353.14 455 227.5 353.14 0 227.5 0z" fill="#ff6e1d"/><path d="M213.36 241.64c3.62 3.62 8.62 5.86 14.14 5.86 10.6 0 19.3-8.29 19.95-18.73l98.49-98.5-21.21-21.21-97.23 97.22-65.41-65.4-21.21 21.21 66.67 66.68c.3 5.02 2.47 9.53 5.81 12.87zM227.5 30C336.4 30 425 118.6 425 227.5S336.4 425 227.5 425 30 336.4 30 227.5 118.6 30 227.5 30z" fill="#fff"/><path d="M228.77 207.55l-1.27-1.27-65.41-65.4-21.21 21.21 66.67 66.68c-.04-.42-.05-.84-.05-1.27l20-20c.43 0 .85.01 1.27.05z" fill="#6da8d6"/><path d="M345.94 130.27l-21.21-21.21-97.23 97.22 1.27 1.27 18.73 19.95c0 .43-.01.85-.05 1.27l98.49-98.5z" fill="#98d9d5"/><path d="M220.927 223.467l-95.912 95.912a7.5 7.5 0 0 0 5.303 12.803 7.474 7.474 0 0 0 5.303-2.197l95.912-95.912-10.606-10.606z" fill="#185f8d"/><path d="M227.5 247.5c11.028 0 20-8.972 20-20s-8.972-20-20-20-20 8.972-20 20 8.972 20 20 20z" fill="#ffcc75"/><path d="M227.5 97.5A7.5 7.5 0 0 1 220 90V60a7.5 7.5 0 0 1 15 0v30a7.5 7.5 0 0 1-7.5 7.5zM395 235h-30a7.5 7.5 0 0 1 0-15h30a7.5 7.5 0 0 1 0 15zM227.5 402.5a7.5 7.5 0 0 1-7.5-7.5v-30a7.5 7.5 0 0 1 15 0v30a7.5 7.5 0 0 1-7.5 7.5zM90 235H60a7.5 7.5 0 0 1 0-15h30a7.5 7.5 0 0 1 0 15z" fill="#274b6d"/></svg>