<svg id="Layer_1" height="512" viewBox="0 0 512 512" width="512" xmlns="http://www.w3.org/2000/svg" xmlns:xlink="http://www.w3.org/1999/xlink" data-name="Layer 1"><linearGradient id="linear-gradient" gradientUnits="userSpaceOnUse" x1="256" x2="256" y1="24.979" y2="489.629"><stop offset="0" stop-color="#00efd1"/><stop offset="1" stop-color="#00acea"/></linearGradient><path d="m472.236 394h-52.236v-360.838a6 6 0 0 0 -5.827-6.162h-316.346a6 6 0 0 0 -5.827 6.162v360.838h-52.236a5.673 5.673 0 0 0 -5.764 5.847v36.769c0 3.314 2.45 6.384 5.764 6.384h44.236v35.838a6.288 6.288 0 0 0 6.171 6.162h62.929a6.059 6.059 0 0 0 5.9-6.162v-35.838h194v35.838a6.059 6.059 0 0 0 5.9 6.162h62.926a6.288 6.288 0 0 0 6.174-6.162v-35.838h44.236c3.314 0 5.764-3.07 5.764-6.384v-36.769a5.673 5.673 0 0 0 -5.764-5.847zm-368.236-355h304v355h-35v-314.146c0-3.313-2.207-5.854-5.521-5.854h-222.958c-3.314 0-5.521 2.541-5.521 5.854v314.146h-35zm257 198h-99v-151h99zm-111 0h-99v-151h99zm-99 12h99v145h-99zm111 0h99v145h-99zm-115 224h-51v-30h51zm269 0h-51v-30h51zm50-42h-420v-25h420z" fill="url(#linear-gradient)"/></svg>