<svg width="16" height="15" viewBox="0 0 16 15" fill="none" xmlns="http://www.w3.org/2000/svg">
<path d="M13.1124 0H2.39794C1.17402 0 0.178101 0.985794 0.178101 2.19727V12.8027C0.178101 14.0142 1.17402 15 2.39794 15H13.1124C14.3363 15 15.3322 14.0142 15.3322 12.8027V2.19727C15.3322 0.985794 14.3363 0 13.1124 0ZM7.78475 11.4258C5.58145 11.4258 3.78904 9.6516 3.78904 7.4707C3.78904 5.2898 5.58145 3.51562 7.78475 3.51562C9.98806 3.51562 11.7805 5.2898 11.7805 7.4707C11.7805 9.6516 9.98806 11.4258 7.78475 11.4258ZM12.2244 4.39453C11.49 4.39453 10.8925 3.8031 10.8925 3.07617C10.8925 2.34924 11.49 1.75781 12.2244 1.75781C12.9588 1.75781 13.5563 2.34924 13.5563 3.07617C13.5563 3.8031 12.9588 4.39453 12.2244 4.39453Z" fill="#FFC000"/>
<path d="M12.2244 2.63672C11.9794 2.63672 11.7804 2.83367 11.7804 3.07617C11.7804 3.31867 11.9794 3.51562 12.2244 3.51562C12.4694 3.51562 12.6684 3.31867 12.6684 3.07617C12.6684 2.83367 12.4694 2.63672 12.2244 2.63672Z" fill="#FFC000"/>
<path d="M7.78472 4.39453C6.07128 4.39453 4.67694 5.77469 4.67694 7.4707C4.67694 9.16672 6.07128 10.5469 7.78472 10.5469C9.49816 10.5469 10.8925 9.16672 10.8925 7.4707C10.8925 5.77469 9.49816 4.39453 7.78472 4.39453Z" fill="#FFC000"/>
</svg>
