<svg width="20" height="20" viewBox="0 0 20 20" fill="none" xmlns="http://www.w3.org/2000/svg">
<path d="M10 0C7.34784 0 4.8043 1.05357 2.92893 2.92893C1.05357 4.8043 0 7.34784 0 10C0 12.6522 1.05357 15.1957 2.92893 17.0711C4.8043 18.9464 7.34784 20 10 20C12.6522 20 15.1957 18.9464 17.0711 17.0711C18.9464 15.1957 20 12.6522 20 10C20 7.34784 18.9464 4.8043 17.0711 2.92893C15.1957 1.05357 12.6522 0 10 0V0ZM10 19.3333C8.77433 19.3333 7.56066 19.0919 6.42829 18.6229C5.29592 18.1538 4.26702 17.4663 3.40034 16.5997C2.53366 15.733 1.84617 14.7041 1.37712 13.5717C0.90808 12.4393 0.666667 11.2257 0.666667 10C0.666667 8.77433 0.90808 7.56066 1.37712 6.42829C1.84617 5.29592 2.53366 4.26702 3.40034 3.40034C4.26702 2.53366 5.29592 1.84617 6.42829 1.37712C7.56066 0.90808 8.77433 0.666667 10 0.666667C12.4754 0.666667 14.8493 1.65 16.5997 3.40034C18.35 5.15068 19.3333 7.52465 19.3333 10C19.3333 12.4754 18.35 14.8493 16.5997 16.5997C14.8493 18.35 12.4754 19.3333 10 19.3333Z" fill="#FFC000"/>
<path d="M8.69641 5.37625L8.69655 5.3761L8.69306 5.37319C8.55901 5.26149 8.37287 5.25731 8.25393 5.37625C8.14165 5.48852 8.11162 5.69839 8.25541 5.82022L12.4255 10.0097L8.25546 14.1797C8.11767 14.2964 8.1165 14.5041 8.25194 14.6223C8.30588 14.6967 8.40213 14.7167 8.46538 14.7167C8.53355 14.7167 8.62595 14.6942 8.69641 14.6238L13.0989 10.2212C13.2163 10.1039 13.2163 9.89612 13.0989 9.77876L8.69641 5.37625Z" fill="#FFC000" stroke="#FFC000" stroke-width="0.1"/>
</svg>
